<svg width="32" height="32" viewBox="0 0 32 32" fill="none" xmlns="http://www.w3.org/2000/svg">
<g clip-path="url(#clip0_1927_40)">
<path d="M16 32C24.8366 32 32 24.8366 32 16C32 7.16344 24.8366 0 16 0C7.16344 0 0 7.16344 0 16C0 24.8366 7.16344 32 16 32Z" fill="#DA4F44"/>
<path d="M17.7726 26.1922V17.2757H20.747L21.311 13.5896H17.7726V11.1926C17.7726 10.1855 18.2695 9.19848 19.854 9.19848H21.4654V6.05623C21.4654 6.05623 20.0017 5.8078 18.6119 5.8078C15.6979 5.8078 13.7911 7.57364 13.7911 10.7696V13.5829H10.5481V17.269H13.7911V26.1855H17.7793L17.7726 26.1922Z" fill="white"/>
</g>
<defs>
<clipPath id="clip0_1927_40">
<rect width="32" height="32" fill="white"/>
</clipPath>
</defs>
</svg>
